<svg width="64" height="64" viewBox="0 0 64 64" fill="none" xmlns="http://www.w3.org/2000/svg">
<path d="M0 12C0 5.37258 5.37258 0 12 0H52C58.6274 0 64 5.37258 64 12V52C64 58.6274 58.6274 64 52 64H12C5.37258 64 0 58.6274 0 52V12Z" fill="#111827"/>
<path d="M13.0449 47.7754C14.373 47.5215 15.418 47.2676 16.1797 47.0137C16.9219 46.7793 17.3906 46.3887 17.5859 45.8418L28.6016 15.4023C28.7578 14.9727 29.0605 14.582 29.5098 14.2305C29.9395 13.8789 30.4375 13.5566 31.0039 13.2637C31.5508 12.9902 32.127 12.7656 32.7324 12.5898C33.3184 12.3945 33.8457 12.2383 34.3145 12.1211L47.6445 45.8418C47.8594 46.3496 48.2598 46.7598 48.8457 47.0723C49.4316 47.3848 50.3398 47.6191 51.5703 47.7754V49.9141H36.6289V47.7754C38.1914 47.6582 39.2266 47.4531 39.7344 47.1602C40.2422 46.8867 40.3887 46.4668 40.1738 45.9004L30.6523 21.3789L21.9512 45.8418C21.8535 46.1348 21.8438 46.3789 21.9219 46.5742C21.9805 46.7695 22.1563 46.9355 22.4492 47.0723C22.7422 47.2285 23.1523 47.3555 23.6797 47.4531C24.207 47.5703 24.8711 47.6777 25.6719 47.7754V49.9141H13.0449V47.7754Z" fill="white"/>
</svg>
