<svg width="107" height="30" viewBox="0 0 107 30" fill="none" xmlns="http://www.w3.org/2000/svg">
<path d="M22.6087 0H5.21739C2.33591 0 0 2.33591 0 5.21739V22.6087C0 25.4902 2.33591 27.8261 5.21739 27.8261H22.6087C25.4902 27.8261 27.8261 25.4902 27.8261 22.6087V5.21739C27.8261 2.33591 25.4902 0 22.6087 0Z" fill="white"/>
<path d="M5.67188 20.7714C6.24931 20.661 6.70366 20.5506 7.03483 20.4402C7.35753 20.3383 7.56131 20.1685 7.64622 19.9307L12.4357 6.69614C12.5036 6.50936 12.6352 6.33949 12.8305 6.18666C13.0174 6.03379 13.2339 5.89366 13.4801 5.76631C13.7179 5.6474 13.9684 5.54975 14.2317 5.47331C14.4864 5.3884 14.7157 5.32049 14.9195 5.26953L20.7152 19.9307C20.8086 20.1515 20.9827 20.3298 21.2374 20.4657C21.4922 20.6016 21.8871 20.7034 22.4221 20.7714V21.7013H15.9258V20.7714C16.6051 20.7204 17.0552 20.6313 17.276 20.5039C17.4968 20.385 17.5605 20.2024 17.4671 19.9562L13.3273 9.29466L9.54418 19.9307C9.5017 20.0581 9.49748 20.1642 9.53144 20.2491C9.55692 20.3341 9.63335 20.4062 9.7607 20.4657C9.88809 20.5336 10.0664 20.5888 10.2957 20.6313C10.525 20.6822 10.8137 20.7289 11.1619 20.7714V21.7013H5.67188V20.7714Z" fill="#232E52"/>
<path d="M47.9218 13.9987C47.9218 15.0602 47.8114 16.0113 47.5905 16.852C47.3783 17.6842 47.0853 18.423 46.7118 19.0684C46.3379 19.7053 45.9005 20.2487 45.3996 20.6988C44.8988 21.1404 44.3635 21.5055 43.7948 21.7943C43.2257 22.0745 42.6355 22.2825 42.0241 22.4184C41.4211 22.5458 40.831 22.6095 40.2535 22.6095H32.9166V21.6796C33.494 21.5607 33.9271 21.4333 34.2158 21.2975C34.5131 21.1531 34.6617 21.0215 34.6617 20.9026V7.87187L32.9166 8.11391L32.751 6.942C33.1671 6.84013 33.6596 6.74247 34.2286 6.64904C34.806 6.55565 35.4089 6.47495 36.0373 6.40704C36.6742 6.3306 37.3111 6.27539 37.948 6.24143C38.5849 6.199 39.1793 6.17773 39.7313 6.17773C41.0305 6.17773 42.1897 6.35608 43.2087 6.71273C44.2279 7.06091 45.0853 7.57043 45.7818 8.24126C46.4779 8.91213 47.0088 9.7316 47.374 10.6996C47.7392 11.6677 47.9218 12.7674 47.9218 13.9987ZM38.8141 7.52795C38.6613 7.52795 38.5042 7.53221 38.3429 7.54069C38.1815 7.54069 38.0159 7.54495 37.8461 7.55343V20.4823C37.8461 20.5417 37.8546 20.6012 37.8716 20.6606C37.8971 20.754 37.9438 20.8389 38.0117 20.9153C38.0796 20.9833 38.1858 21.0427 38.3302 21.0937C38.4745 21.1446 38.6613 21.1829 38.8906 21.2083C39.1284 21.2338 39.4256 21.2465 39.7822 21.2465C40.1049 21.2465 40.4446 21.1913 40.8013 21.081C41.1664 20.9706 41.5231 20.7965 41.8712 20.5587C42.2279 20.3209 42.5633 20.0237 42.8775 19.667C43.2002 19.3019 43.4805 18.8688 43.7183 18.3678C43.9562 17.8668 44.147 17.2978 44.2914 16.661C44.4357 16.0156 44.5079 15.2937 44.5079 14.4955C44.5079 13.3661 44.3848 12.3683 44.1388 11.5021C43.8922 10.636 43.527 9.90991 43.0431 9.32399C42.5675 8.72956 41.9732 8.28373 41.2598 7.98652C40.555 7.68082 39.7398 7.52795 38.8141 7.52795ZM55.4879 11.9097C55.0888 11.9097 54.7448 11.9862 54.4562 12.139C54.1675 12.2919 53.9214 12.5126 53.7175 12.8014C53.5222 13.0901 53.3648 13.4383 53.2462 13.8459C53.1357 14.2535 53.0548 14.712 53.004 15.2216H57.2457C57.4409 15.2216 57.5683 15.1919 57.6279 15.1324C57.6957 15.0645 57.7296 14.9413 57.7296 14.763C57.7296 14.5083 57.6957 14.2195 57.6279 13.8968C57.5601 13.5656 57.4366 13.2557 57.2583 12.967C57.0888 12.6698 56.8592 12.4193 56.5705 12.2155C56.2818 12.0116 55.9209 11.9097 55.4879 11.9097ZM60.774 15.6037C60.6975 15.6886 60.5875 15.782 60.4431 15.8839C60.2988 15.9858 60.1414 16.0835 59.9718 16.1769C59.8018 16.2703 59.6279 16.3595 59.4492 16.4444C59.2796 16.5293 59.1266 16.5973 58.9909 16.6482H52.9657C52.9827 17.2596 53.0635 17.8243 53.2079 18.3423C53.3605 18.8518 53.5731 19.2934 53.8448 19.667C54.1166 20.0407 54.4435 20.3336 54.8257 20.546C55.2162 20.7498 55.6618 20.8516 56.1631 20.8516C56.4261 20.8516 56.6809 20.8389 56.9275 20.8134C57.1822 20.7795 57.454 20.7073 57.7427 20.5969C58.0396 20.4865 58.3709 20.3336 58.7361 20.1383C59.1014 19.9346 59.5344 19.6586 60.0353 19.3104C60.0862 19.3359 60.1457 19.3868 60.2135 19.4633C60.2901 19.5397 60.3579 19.6246 60.4175 19.718C60.4853 19.8029 60.5448 19.8836 60.5957 19.96C60.6466 20.0364 60.6805 20.0916 60.6975 20.1256C60.1118 20.72 59.5853 21.2041 59.1183 21.5777C58.6509 21.9513 58.2009 22.2443 57.7679 22.4566C57.3435 22.6604 56.9188 22.8006 56.4944 22.877C56.0696 22.9534 55.6027 22.9916 55.0931 22.9916C54.3714 22.9916 53.6875 22.8473 53.0422 22.5585C52.4053 22.2698 51.8448 21.8622 51.3609 21.3357C50.8853 20.8092 50.5075 20.1766 50.227 19.4378C49.947 18.699 49.807 17.8795 49.807 16.9794C49.807 15.8245 50.0235 14.797 50.4566 13.8968C50.8979 12.9882 51.5562 12.2155 52.4309 11.5786C52.6518 11.4172 52.8979 11.2643 53.1696 11.12C53.4501 10.9672 53.7388 10.8398 54.0357 10.7379C54.3414 10.6275 54.6557 10.5426 54.9783 10.4831C55.3009 10.4152 55.624 10.3812 55.9466 10.3812C56.7788 10.3812 57.4962 10.5256 58.0992 10.8143C58.7105 11.103 59.2118 11.4894 59.6022 11.9734C60.0014 12.449 60.2944 13.001 60.4809 13.6293C60.6766 14.2577 60.774 14.9159 60.774 15.6037ZM74.6966 11.6932C74.4418 11.7526 74.2379 11.8078 74.0848 11.8588C73.9405 11.9097 73.8218 11.9692 73.7283 12.0371C73.6435 12.0966 73.5757 12.1687 73.5244 12.2536C73.4822 12.3386 73.4353 12.4405 73.3844 12.5594L69.7796 21.565C69.7031 21.7518 69.5844 21.9216 69.4231 22.0745C69.2701 22.2273 69.0918 22.3675 68.8879 22.4948C68.6844 22.6137 68.4679 22.7114 68.2383 22.7878C68.0092 22.8727 67.7927 22.9406 67.5888 22.9916L63.0922 12.5594C62.9988 12.3301 62.8588 12.1518 62.6718 12.0244C62.4935 11.897 62.1966 11.7866 61.7805 11.6932V10.7633H67.5505V11.6932C67.2192 11.7356 66.9562 11.7824 66.7609 11.8333C66.574 11.8758 66.434 11.931 66.3405 11.9989C66.2557 12.0583 66.2131 12.1348 66.2131 12.2282C66.2131 12.3131 66.2427 12.4235 66.3022 12.5594L69.0409 18.9665L71.614 12.5594C71.6648 12.432 71.6905 12.3259 71.6905 12.2409C71.6988 12.1475 71.6692 12.0711 71.6014 12.0116C71.5331 11.9437 71.4188 11.8885 71.2575 11.846C71.0957 11.7951 70.8709 11.7442 70.5822 11.6932V10.7633H74.6966V11.6932ZM82.7979 7.48973C82.2201 7.6086 81.7831 7.74026 81.4857 7.8846C81.1883 8.02895 81.0401 8.1606 81.0401 8.27947V20.2785C81.0401 21.2126 80.9466 22.015 80.7596 22.6859C80.5727 23.3568 80.3309 23.9342 80.0335 24.4183C79.7449 24.9023 79.4222 25.3141 79.0657 25.6538C78.7088 25.9935 78.3649 26.2992 78.034 26.5709C77.8044 26.7577 77.5453 26.9318 77.2566 27.0932C76.9766 27.263 76.6835 27.4074 76.3779 27.5263C76.0722 27.6536 75.7622 27.7513 75.4479 27.8192C75.134 27.8956 74.8322 27.9339 74.5435 27.9339C74.1614 27.9339 73.7879 27.8872 73.4227 27.7937C73.0575 27.7088 72.7348 27.6027 72.4544 27.4753C72.1657 27.3479 71.9322 27.212 71.754 27.0677C71.5757 26.9318 71.4866 26.8172 71.4866 26.7238C71.4866 26.6303 71.5757 26.4775 71.754 26.2652C71.9322 26.0614 72.1405 25.8491 72.3783 25.6283C72.6162 25.4075 72.8535 25.2037 73.0914 25.0169C73.3292 24.8386 73.5075 24.7282 73.6266 24.6857C74.1022 25.0933 74.5392 25.3778 74.9383 25.5392C75.3462 25.709 75.7114 25.7939 76.034 25.7939C76.2548 25.7939 76.4714 25.743 76.6835 25.6411C76.9044 25.5392 77.0996 25.3226 77.2696 24.9914C77.4479 24.6687 77.5879 24.206 77.6901 23.603C77.8001 23.0001 77.8553 22.1976 77.8553 21.1956V8.27947C77.8553 8.22852 77.8257 8.17334 77.7662 8.11391C77.7153 8.05443 77.6005 7.99078 77.4222 7.92282C77.2527 7.85491 77.0105 7.78695 76.6962 7.71904C76.3905 7.6426 75.9831 7.56617 75.4735 7.48973V6.55987H82.7979V7.48973ZM90.1092 11.9097C89.7101 11.9097 89.3662 11.9862 89.0775 12.139C88.7888 12.2919 88.5422 12.5126 88.3388 12.8014C88.1431 13.0901 87.9862 13.4383 87.8675 13.8459C87.757 14.2535 87.6762 14.712 87.6253 15.2216H91.867C92.0622 15.2216 92.1896 15.1919 92.2492 15.1324C92.317 15.0645 92.3509 14.9413 92.3509 14.763C92.3509 14.5083 92.317 14.2195 92.2492 13.8968C92.1814 13.5656 92.0579 13.2557 91.8796 12.967C91.7101 12.6698 91.4805 12.4193 91.1918 12.2155C90.9031 12.0116 90.5422 11.9097 90.1092 11.9097ZM95.3953 15.6037C95.3188 15.6886 95.2083 15.782 95.064 15.8839C94.9196 15.9858 94.7627 16.0835 94.5927 16.1769C94.4231 16.2703 94.2488 16.3595 94.0705 16.4444C93.9009 16.5293 93.7479 16.5973 93.6122 16.6482H87.587C87.604 17.2596 87.6848 17.8243 87.8292 18.3423C87.9818 18.8518 88.1944 19.2934 88.4662 19.667C88.7379 20.0407 89.0649 20.3336 89.447 20.546C89.8375 20.7498 90.2831 20.8516 90.7844 20.8516C91.0475 20.8516 91.3022 20.8389 91.5483 20.8134C91.8031 20.7795 92.0748 20.7073 92.364 20.5969C92.6609 20.4865 92.9922 20.3336 93.3575 20.1383C93.7222 19.9346 94.1557 19.6586 94.6566 19.3104C94.7075 19.3359 94.767 19.3868 94.8349 19.4633C94.9114 19.5397 94.9792 19.6246 95.0388 19.718C95.1066 19.8029 95.1662 19.8836 95.217 19.96C95.2679 20.0364 95.3018 20.0916 95.3188 20.1256C94.7331 20.72 94.2066 21.2041 93.7396 21.5777C93.2722 21.9513 92.8222 22.2443 92.3892 22.4566C91.9649 22.6604 91.5401 22.8006 91.1153 22.877C90.6909 22.9534 90.224 22.9916 89.7144 22.9916C88.9927 22.9916 88.3088 22.8473 87.6635 22.5585C87.0266 22.2698 86.4662 21.8622 85.9822 21.3357C85.5066 20.8092 85.1288 20.1766 84.8483 19.4378C84.5683 18.699 84.4283 17.8795 84.4283 16.9794C84.4283 15.8245 84.6448 14.797 85.0779 13.8968C85.5192 12.9882 86.1775 12.2155 87.0522 11.5786C87.2731 11.4172 87.5192 11.2643 87.7909 11.12C88.0709 10.9672 88.3601 10.8398 88.657 10.7379C88.9627 10.6275 89.277 10.5426 89.5996 10.4831C89.9222 10.4152 90.2449 10.3812 90.5679 10.3812C91.4001 10.3812 92.1175 10.5256 92.7205 10.8143C93.3318 11.103 93.8327 11.4894 94.2235 11.9734C94.6227 12.449 94.9157 13.001 95.1022 13.6293C95.2979 14.2577 95.3953 14.9159 95.3953 15.6037ZM105.611 20.6351C104.482 21.4503 103.526 22.049 102.745 22.4311C101.964 22.8048 101.348 22.9916 100.898 22.9916C100.533 22.9916 100.185 22.9194 99.8536 22.7751C99.5309 22.6392 99.2466 22.4269 99.0001 22.1382C98.7622 21.8495 98.5714 21.4886 98.427 21.0555C98.2827 20.6139 98.2105 20.0959 98.2105 19.5015V12.3556H96.6692L96.2996 11.897L97.2931 10.7633H98.2105V8.10117L100.784 6.20321L101.267 6.62356V10.7633H105.153L105.611 11.2219C105.534 11.3663 105.437 11.5191 105.318 11.6805C105.208 11.8333 105.093 11.9862 104.974 12.139C104.855 12.2834 104.737 12.415 104.617 12.5339C104.507 12.6528 104.41 12.742 104.324 12.8014C104.223 12.7504 104.091 12.6995 103.93 12.6485C103.777 12.5976 103.603 12.5509 103.407 12.5084C103.212 12.4575 103.004 12.4193 102.783 12.3938C102.571 12.3683 102.35 12.3556 102.121 12.3556H101.267V18.3169C101.267 18.7499 101.293 19.1193 101.344 19.425C101.395 19.7223 101.467 19.9643 101.561 20.1511C101.662 20.3294 101.777 20.461 101.904 20.546C102.04 20.6224 102.189 20.6606 102.35 20.6606C102.503 20.6606 102.66 20.6479 102.821 20.6224C102.991 20.5884 103.182 20.5375 103.395 20.4695C103.607 20.4016 103.845 20.3082 104.108 20.1893C104.38 20.0619 104.694 19.9006 105.051 19.7053L105.611 20.6351Z" fill="white"/>
</svg>
